<?xml version="1.0" encoding="utf-8"?>
<!-- Generator: Adobe Illustrator 22.0.1, SVG Export Plug-In . SVG Version: 6.00 Build 0)  -->
<svg version="1.1" id="Layer_1" xmlns="http://www.w3.org/2000/svg" xmlns:xlink="http://www.w3.org/1999/xlink" x="0px" y="0px"
	 viewBox="0 0 82 82" style="enable-background:new 0 0 82 82;" xml:space="preserve">
<style type="text/css">
	.st0{fill:#FFFFFF;}
</style>
<title>Soundcloud</title>
<g id="Layer_2_1_">
	<g id="Icons">
		<path class="st0" d="M41,82C18.4,82,0,63.6,0,41S18.4,0,41,0s41,18.4,41,41S63.6,82,41,82z M41,2C19.5,2,2,19.5,2,41
			s17.5,39,39,39s39-17.5,39-39S62.5,2,41,2z"/>
	</g>
</g>
<g>
	<path class="st0" d="M59.1,41.6c0-10-8.1-18.1-18.1-18.1c-10,0-18.1,8.1-18.1,18.1c0,4.6,1.7,9,4.9,12.4l0,0c0.4,0.5,1.1,0.5,1.6,0
		l2-1.8c0.4-0.4,0.5-1.1,0.1-1.6l0,0c-2.3-2.5-3.6-5.7-3.6-9c0-7.3,5.9-13.2,13.2-13.2c7.3,0,13.2,5.9,13.2,13.2
		c0,3.4-1.3,6.6-3.6,9l0,0c-0.4,0.5-0.4,1.2,0.1,1.6l2,1.8c0.5,0.4,1.2,0.4,1.6,0l0,0C57.4,50.7,59.1,46.2,59.1,41.6"/>
	<path class="st0" d="M66,41.5c0-2.5-0.4-4.9-1.1-7.2h0c0,0,0,0,0,0c0,0,0,0,0,0c-0.2-0.6-0.8-0.9-1.4-0.7l-2.6,0.8
		c-0.6,0.2-0.9,0.8-0.7,1.4l0,0c0.6,1.9,0.9,3.8,0.9,5.8c0,3.5-0.9,6.9-2.7,9.9l0,0C58,52,58.2,52.6,58.7,53l2.3,1.4
		c0.5,0.3,1.2,0.1,1.5-0.4C64.8,50.2,66,45.9,66,41.5"/>
	<path class="st0" d="M23.7,51.4c-1.8-3-2.7-6.4-2.7-9.9c0-2,0.3-3.9,0.9-5.8h0v0v0c0.2-0.6-0.1-1.2-0.7-1.4l-2.6-0.8
		c-0.6-0.2-1.2,0.1-1.4,0.7l0,0c-0.7,2.3-1.1,4.8-1.1,7.3c0,4.4,1.2,8.7,3.4,12.4l0,0c0.3,0.5,1,0.7,1.5,0.4l2.3-1.4
		C23.8,52.6,24,52,23.7,51.4L23.7,51.4z"/>
</g>
</svg>
