<?xml version="1.0" encoding="utf-8"?>
<!-- Generator: Adobe Illustrator 22.0.1, SVG Export Plug-In . SVG Version: 6.00 Build 0)  -->
<svg version="1.1" id="Layer_1" xmlns="http://www.w3.org/2000/svg" xmlns:xlink="http://www.w3.org/1999/xlink" x="0px" y="0px"
	 viewBox="0 0 82 82" style="enable-background:new 0 0 82 82;" xml:space="preserve">
<style type="text/css">
	.st0{fill:#FFFFFF;}
</style>
<title>Soundcloud</title>
<g id="Layer_2_1_">
	<g id="Icons">
		<path class="st0" d="M41,82C18.4,82,0,63.6,0,41S18.4,0,41,0s41,18.4,41,41S63.6,82,41,82z M41,2C19.5,2,2,19.5,2,41
			s17.5,39,39,39s39-17.5,39-39S62.5,2,41,2z"/>
		<g id="Mixcloud">
			<g id="_Group_">
				<g id="_Group_2">
					<g id="_Path_">
						<g>
							<path class="st0" d="M45.3,51.5H25.4c-4.2,0-7.6-3.4-7.6-7.6s3.4-7.6,7.6-7.6c0.1,0,0.3,0,0.4,0c1.3-4.4,5.3-7.6,10-7.6
								c0,0,0,0,0,0c2.8,0,5.4,1.1,7.3,3c1.8,1.8,2.8,4,3,6.5c3.2,0.4,5.7,3.2,5.7,6.6C51.9,48.5,48.9,51.5,45.3,51.5z M25.4,38.3
								c-3.1,0-5.7,2.5-5.7,5.7c0,3.1,2.5,5.7,5.7,5.7h19.9c2.6,0,4.7-2.1,4.7-4.7c0-2.6-2.1-4.7-4.7-4.7c-0.5,0-0.9-0.4-0.9-0.9
								c0-2.3-0.9-4.4-2.5-6c-1.6-1.6-3.8-2.5-6-2.5c-4.1,0-7.6,2.9-8.3,6.9c-0.1,0.5-0.6,0.8-1.1,0.8C26,38.3,25.7,38.3,25.4,38.3z
								"/>
						</g>
					</g>
					<g id="_Path_2">
						<g>
							<path class="st0" d="M30.1,40.2c-0.2,0-0.5-0.1-0.7-0.3c-2.1-2.1-5.9-2.1-8,0c-0.4,0.4-1,0.4-1.3,0s-0.4-1,0-1.3
								c2.9-2.9,7.8-2.9,10.7,0c0.4,0.4,0.4,1,0,1.3C30.6,40.1,30.3,40.2,30.1,40.2z"/>
						</g>
					</g>
					<g id="_Path_3">
						<g>
							<path class="st0" d="M44.6,43.7c-0.5,0-0.9-0.4-0.9-0.9c0-0.1,0-0.2,0.1-0.4h0C45.5,38,43.3,33,39,31.3
								c-0.5-0.2-0.7-0.7-0.5-1.2c0.2-0.5,0.7-0.7,1.2-0.5c5.3,2.1,7.9,8.2,5.8,13.5C45.3,43.4,45,43.7,44.6,43.7z M44.6,42.7
								L44.6,42.7L44.6,42.7z"/>
						</g>
					</g>
				</g>
				<g id="_Path_4">
					<g>
						<path class="st0" d="M54.9,51.8c-0.2,0-0.3,0-0.5-0.1c-0.4-0.3-0.6-0.9-0.3-1.3c2.1-3.3,2.1-7.6,0-10.9
							c-0.3-0.4-0.1-1,0.3-1.3c0.4-0.3,1-0.1,1.3,0.3c2.5,3.9,2.5,9,0,12.9C55.5,51.6,55.2,51.8,54.9,51.8z"/>
					</g>
				</g>
				<g id="_Path_5">
					<g>
						<path class="st0" d="M59.4,55.3c-0.2,0-0.4-0.1-0.5-0.2c-0.4-0.3-0.6-0.9-0.3-1.3c3.6-5.4,3.6-12.5,0-17.9
							c-0.3-0.4-0.2-1,0.3-1.3c0.4-0.3,1-0.2,1.3,0.3c4,6.1,4,13.9,0,20C60,55.1,59.7,55.3,59.4,55.3z"/>
					</g>
				</g>
			</g>
		</g>
	</g>
</g>
</svg>
