<?xml version="1.0" encoding="utf-8"?>
<!-- Generator: Adobe Illustrator 22.0.1, SVG Export Plug-In . SVG Version: 6.00 Build 0)  -->
<svg version="1.1" id="Layer_1" xmlns="http://www.w3.org/2000/svg" xmlns:xlink="http://www.w3.org/1999/xlink" x="0px" y="0px"
	 viewBox="0 0 82 82" style="enable-background:new 0 0 82 82;" xml:space="preserve">
<style type="text/css">
	.st0{fill:#FFFFFF;}
</style>
<title>Soundcloud</title>
<g id="Layer_2_1_">
	<g id="Icons">
		<path class="st0" d="M41,82C18.4,82,0,63.6,0,41S18.4,0,41,0s41,18.4,41,41S63.6,82,41,82z M41,2C19.5,2,2,19.5,2,41
			s17.5,39,39,39s39-17.5,39-39S62.5,2,41,2z"/>
		<path class="st0" d="M40.6,19.6c-11.5,0-20.8,9.3-20.8,20.8c0,11.5,9.3,20.8,20.8,20.8c11.5,0,20.8-9.3,20.8-20.8
			C61.4,28.9,52.1,19.6,40.6,19.6C40.6,19.6,40.6,19.6,40.6,19.6z M50.2,49.6c-0.4,0.6-1.2,0.8-1.8,0.4c-4.9-3-11.1-3.7-18.3-2
			c-0.7,0.2-1.4-0.3-1.6-1c-0.2-0.7,0.3-1.4,1-1.6c7.9-1.8,14.8-1,20.2,2.3C50.3,48.2,50.5,49,50.2,49.6z M52.7,44
			c-0.5,0.8-1.5,1-2.2,0.5c-5.6-3.4-14.1-4.4-20.8-2.4c-0.9,0.3-1.8-0.2-2-1.1c-0.3-0.9,0.2-1.8,1.1-2c7.6-2.3,17-1.2,23.4,2.8
			C52.9,42.2,53.2,43.2,52.7,44L52.7,44z M52.9,38.1c-6.7-4-17.8-4.4-24.2-2.4c-1,0.3-2.1-0.3-2.4-1.3c-0.3-1,0.3-2.1,1.3-2.4
			c7.4-2.2,19.6-1.8,27.3,2.8c0.9,0.5,1.2,1.7,0.7,2.7C55,38.3,53.8,38.6,52.9,38.1L52.9,38.1z"/>
	</g>
</g>
</svg>
