<?xml version="1.0" encoding="utf-8"?>
<!-- Generator: Adobe Illustrator 22.1.0, SVG Export Plug-In . SVG Version: 6.00 Build 0)  -->
<svg version="1.1" id="Layer_1" xmlns="http://www.w3.org/2000/svg" xmlns:xlink="http://www.w3.org/1999/xlink" x="0px" y="0px"
	 viewBox="0 0 1920 1080" style="enable-background:new 0 0 1920 1080;" xml:space="preserve">
<g>
	<g>
		<path d="M1348.4,503.7h-238.6v201h280.6v110.8H970.8V105.1h418.7v110.8h-279.6v177.1h238.6V503.7z"/>
	</g>
	<g>
		<path d="M795.9,416.4v-201H529.6V104.6H935V815H530.6V704.3h265.4V527.2V416.4z"/>
	</g>
	<path d="M1018.6,902.2h-30.2v24.5h35.5v13.5h-53.1v-86.5h53v13.5h-35.4v21.6h30.2V902.2z"/>
	<path d="M1055.5,853.7l16.1,63.5h0.4l16.3-63.5h22.9v86.5h-17.5V915l1.5-33.6l-0.4-0.1l-17.2,58.8H1066l-17-58.3l-0.4,0.1l1.5,33.1
		v25.1h-17.5v-86.5H1055.5z"/>
	<path d="M1142.1,909.1v31.1h-17.6v-86.5h31.3c9,0,16.1,2.6,21.3,7.7s7.8,11.8,7.8,20c0,8.3-2.6,15-7.8,20.1
		c-5.2,5.1-12.3,7.6-21.2,7.6H1142.1z M1142.1,895.6h13.7c3.7,0,6.6-1.3,8.6-4c2-2.7,3-6,3-10.1c0-4.1-1-7.5-2.9-10.3
		c-2-2.7-4.8-4.1-8.6-4.1h-13.7V895.6z"/>
	<path d="M1223.7,890.7h0.4l15-37.1h19.1l-25.7,55.7v30.8H1215v-31.8l-25.3-54.6h19.2L1223.7,890.7z"/>
	<path d="M1283.1,905.7v34.4h-17.5v-86.4h29.3c8.9,0,15.8,2.2,20.9,6.7c5,4.5,7.6,10.7,7.6,18.7c0,4.5-1.1,8.4-3.2,11.7
		c-2.1,3.3-5.2,5.9-9.2,7.8c4.6,1.5,7.9,4,10,7.5c2,3.5,3.1,7.8,3.1,13.1v6.1c0,2.4,0.3,4.9,0.9,7.6c0.6,2.7,1.6,4.7,3,5.9v1.2
		h-18.2c-1.4-1.3-2.3-3.3-2.7-6.2c-0.4-2.8-0.6-5.8-0.6-8.7v-5.9c0-4.3-0.9-7.7-2.8-10c-1.8-2.4-4.5-3.6-7.9-3.6H1283.1z
		 M1283.1,892.3h11.7c3.6,0,6.3-1,8.2-3.1c1.9-2.1,2.8-5.1,2.8-9c0-4-0.9-7.1-2.8-9.4c-1.9-2.3-4.5-3.5-8.1-3.5h-11.8V892.3z"/>
	<path d="M1385.1,902.2h-30.2v24.5h35.5v13.5h-53.1v-86.5h53v13.5h-35.4v21.6h30.2V902.2z"/>
	<g>
		<path d="M589.2,912l0.2,0.4c0.1,9.5-2.3,16.7-7,21.6c-4.8,4.8-11.8,7.3-21.1,7.3c-9.3,0-16.7-2.7-22.3-8.2
			c-5.6-5.5-8.3-13.3-8.3-23.4v-25.9c0-10,2.7-17.8,8.1-23.4c5.4-5.5,12.6-8.3,21.6-8.3c9.5,0,16.8,2.5,21.6,7.4
			c4.9,4.9,7.4,12.2,7.6,21.9l-0.2,0.4h-16.9c0.2-5.7-0.6-9.8-2.4-12.3c-1.9-2.5-5.1-3.8-9.7-3.8c-4,0-7,1.5-9.1,4.5
			c-2.1,3-3.1,7.5-3.1,13.5v26.1c0,6.1,1.1,10.7,3.4,13.7c2.2,3,5.5,4.5,9.8,4.5c4.2,0,7.2-1.2,8.9-3.5c1.7-2.4,2.4-6.4,2.2-12.1
			H589.2z"/>
		<path d="M617.6,905.5V940h-17.5v-86.7h29.3c8.8,0,15.8,2.3,20.8,6.8c5,4.5,7.6,10.8,7.6,18.8c0,4.5-1.1,8.4-3.2,11.7
			c-2.1,3.3-5.2,5.9-9.2,7.8c4.6,1.5,7.9,4,10,7.5c2,3.5,3.1,7.9,3.1,13.1v6.1c0,2.4,0.3,4.9,0.9,7.7c0.6,2.7,1.6,4.7,3,5.9v1.2
			h-18.1c-1.4-1.3-2.3-3.3-2.7-6.2s-0.6-5.8-0.6-8.8v-5.9c0-4.3-0.9-7.7-2.7-10.1c-1.8-2.4-4.5-3.6-7.9-3.6H617.6z M617.6,891.9
			h11.7c3.6,0,6.3-1.1,8.1-3.2c1.9-2.1,2.8-5.1,2.8-9c0-4-0.9-7.1-2.8-9.5c-1.9-2.3-4.5-3.5-8.1-3.5h-11.8V891.9z"/>
		<path d="M732.3,908.8c0,10.2-2.9,18.1-8.6,23.8c-5.7,5.7-13.3,8.6-22.8,8.6c-9.5,0-17.1-2.9-22.8-8.6c-5.7-5.7-8.5-13.7-8.5-23.8
			v-24.3c0-10.1,2.8-18.1,8.5-23.9c5.7-5.8,13.2-8.7,22.7-8.7c9.5,0,17.1,2.9,22.8,8.7c5.8,5.8,8.6,13.7,8.6,23.9V908.8z
			 M714.8,884.3c0-6.2-1.2-10.9-3.6-14.1c-2.4-3.2-5.9-4.8-10.4-4.8c-4.6,0-8.1,1.6-10.4,4.7c-2.3,3.1-3.5,7.8-3.5,14.1v24.5
			c0,6.3,1.2,11,3.5,14.2s5.8,4.7,10.4,4.7c4.5,0,8-1.6,10.4-4.7c2.4-3.1,3.6-7.9,3.6-14.2V884.3z"/>
		<path d="M806.6,940h-17.5l-27.5-55.5l-0.4,0.1V940h-17.6v-86.7h17.6l27.5,55.4l0.4-0.1v-55.3h17.5V940z"/>
		<path d="M852,853.2h17.5v60.3c0,8.5-2.5,15.2-7.4,20.2c-5,5-11.2,7.5-18.7,7.5c-8.1,0-14.6-2.2-19.4-6.7c-4.8-4.4-7-11-6.9-19.7
			l0.2-0.4h17.1c0,4.6,0.8,7.9,2.5,10s3.8,3.2,6.5,3.2c2.4,0,4.4-1.3,6.1-3.8c1.7-2.5,2.6-6,2.6-10.4V853.2z"/>
		<path d="M930.7,901.9h-30.2v24.5H936V940h-53.1v-86.7h53v13.5h-35.4v21.6h30.2V901.9z"/>
	</g>
	<g>
		<rect x="529.6" y="978.5" transform="matrix(1 -3.320294e-03 3.320294e-03 1 -3.3018 3.193)" width="860.8" height="35.2"/>
	</g>
</g>
</svg>
