<?xml version="1.0" encoding="utf-8"?>
<!-- Generator: Adobe Illustrator 22.0.1, SVG Export Plug-In . SVG Version: 6.00 Build 0)  -->
<svg version="1.1" id="Layer_1" xmlns="http://www.w3.org/2000/svg" xmlns:xlink="http://www.w3.org/1999/xlink" x="0px" y="0px"
	 viewBox="0 0 82 82" style="enable-background:new 0 0 82 82;" xml:space="preserve">
<style type="text/css">
	.st0{fill:#FFFFFF;}
	.st1{fill:none;}
</style>
<title>Soundcloud</title>
<g id="Layer_2_1_">
	<g id="Icons">
		<path class="st0" d="M41,82C18.4,82,0,63.6,0,41S18.4,0,41,0s41,18.4,41,41S63.6,82,41,82z M41,2C19.5,2,2,19.5,2,41
			s17.5,39,39,39s39-17.5,39-39S62.5,2,41,2z"/>
		<g id="_x37__stroke">
			<g id="Instagram_1_">
				<rect x="22.3" y="23.2" class="st1" width="37.8" height="37.8"/>
				<path id="Instagram" class="st0" d="M53.5,32c0,1.3-1,2.3-2.3,2.3c-1.3,0-2.3-1-2.3-2.3s1-2.3,2.3-2.3
					C52.5,29.7,53.5,30.8,53.5,32z M41.2,48.4c-3.5,0-6.3-2.8-6.3-6.3c0-3.5,2.8-6.3,6.3-6.3c3.5,0,6.3,2.8,6.3,6.3
					C47.5,45.6,44.6,48.4,41.2,48.4z M41.2,32.4c-5.4,0-9.7,4.3-9.7,9.7s4.3,9.7,9.7,9.7s9.7-4.3,9.7-9.7S46.5,32.4,41.2,32.4z
					 M41.2,26.6c5,0,5.6,0,7.6,0.1c1.8,0.1,2.8,0.4,3.5,0.7c0.9,0.3,1.5,0.8,2.2,1.4c0.7,0.7,1.1,1.3,1.4,2.2
					c0.3,0.7,0.6,1.7,0.7,3.5c0.1,2,0.1,2.6,0.1,7.6s0,5.6-0.1,7.6c-0.1,1.8-0.4,2.8-0.7,3.5c-0.3,0.9-0.8,1.5-1.4,2.2
					c-0.7,0.7-1.3,1.1-2.2,1.4c-0.7,0.3-1.7,0.6-3.5,0.7c-2,0.1-2.6,0.1-7.6,0.1c-5,0-5.6,0-7.6-0.1c-1.8-0.1-2.8-0.4-3.5-0.7
					c-0.9-0.3-1.5-0.8-2.2-1.4c-0.7-0.7-1.1-1.3-1.4-2.2c-0.3-0.7-0.6-1.7-0.7-3.5c-0.1-2-0.1-2.6-0.1-7.6c0-5,0-5.6,0.1-7.6
					c0.1-1.8,0.4-2.8,0.7-3.5c0.3-0.9,0.8-1.5,1.4-2.2c0.7-0.7,1.3-1.1,2.2-1.4c0.7-0.3,1.7-0.6,3.5-0.7
					C35.5,26.6,36.1,26.6,41.2,26.6z M41.2,23.2c-5.1,0-5.8,0-7.8,0.1c-2,0.1-3.4,0.4-4.6,0.9c-1.2,0.5-2.3,1.1-3.3,2.2
					c-1.1,1.1-1.7,2.1-2.2,3.3c-0.5,1.2-0.8,2.6-0.9,4.6c-0.1,2-0.1,2.7-0.1,7.8s0,5.8,0.1,7.8c0.1,2,0.4,3.4,0.9,4.6
					c0.5,1.2,1.1,2.3,2.2,3.3c1.1,1.1,2.1,1.7,3.3,2.2c1.2,0.5,2.6,0.8,4.6,0.9c2,0.1,2.7,0.1,7.8,0.1s5.8,0,7.8-0.1
					c2-0.1,3.4-0.4,4.6-0.9c1.2-0.5,2.3-1.1,3.3-2.2s1.7-2.1,2.2-3.3c0.5-1.2,0.8-2.6,0.9-4.6c0.1-2,0.1-2.7,0.1-7.8s0-5.8-0.1-7.8
					c-0.1-2-0.4-3.4-0.9-4.6c-0.5-1.2-1.1-2.3-2.2-3.3c-1.1-1.1-2.1-1.7-3.3-2.2c-1.2-0.5-2.6-0.8-4.6-0.9
					C46.9,23.2,46.3,23.2,41.2,23.2z"/>
			</g>
		</g>
	</g>
</g>
</svg>
