<?xml version="1.0" encoding="utf-8"?>
<!-- Generator: Adobe Illustrator 22.0.1, SVG Export Plug-In . SVG Version: 6.00 Build 0)  -->
<svg version="1.1" id="Layer_1" xmlns="http://www.w3.org/2000/svg" xmlns:xlink="http://www.w3.org/1999/xlink" x="0px" y="0px"
	 viewBox="0 0 82 82" style="enable-background:new 0 0 82 82;" xml:space="preserve">
<style type="text/css">
	.st0{fill:#FFFFFF;}
</style>
<title>Soundcloud</title>
<g id="Layer_2_1_">
	<g id="Icons">
		<path class="st0" d="M41,82C18.4,82,0,63.6,0,41S18.4,0,41,0s41,18.4,41,41S63.6,82,41,82z M41,2C19.5,2,2,19.5,2,41
			s17.5,39,39,39s39-17.5,39-39S62.5,2,41,2z"/>
		<path class="st0" d="M22,47.9c0.1,0,0.2-0.1,0.2-0.2l0.5-3.7l-0.5-3.8c0-0.1-0.1-0.2-0.2-0.2c-0.1,0-0.2,0.1-0.2,0.2L21.5,44
			l0.4,3.7C21.8,47.8,21.9,47.9,22,47.9C22,47.9,22,47.9,22,47.9z M20.4,46.5c0.1,0,0.2-0.1,0.2-0.2L21,44l-0.4-2.3
			c0-0.1-0.1-0.2-0.2-0.2c-0.1,0-0.2,0.1-0.2,0.2L20,44l0.3,2.3C20.3,46.4,20.4,46.5,20.4,46.5L20.4,46.5z M23.9,39.5
			c0-0.1-0.1-0.2-0.3-0.2c-0.1,0-0.1,0.1-0.2,0.2L23,44l0.4,4.3c0,0.1,0.1,0.2,0.3,0.2c0.1,0,0.1-0.1,0.2-0.2l0.4-4.3L23.9,39.5z
			 M25.4,48.7c0.1,0,0.2-0.1,0.3-0.2l0,0l0.4-4.4l-0.4-4.6c0-0.1-0.2-0.2-0.3-0.2c-0.1,0-0.2,0.1-0.2,0.2L24.8,44l0.3,4.4
			C25.1,48.6,25.2,48.7,25.4,48.7C25.4,48.7,25.4,48.7,25.4,48.7z M27.1,48.8c0.2,0,0.3-0.1,0.3-0.3l0,0l0.4-4.5l-0.4-4.3
			c0-0.2-0.1-0.3-0.3-0.3c-0.1,0-0.3,0.1-0.3,0.3L26.5,44l0.3,4.5C26.8,48.6,26.9,48.8,27.1,48.8L27.1,48.8z M29.5,44L29,37.1
			c0-0.2-0.2-0.3-0.4-0.3c-0.1,0-0.2,0.1-0.3,0.3L28.1,44l0.3,4.5c0,0.2,0.2,0.3,0.4,0.3c0.1,0,0.2-0.1,0.3-0.3l0,0L29.5,44z
			 M30.5,48.8c0.2,0,0.3-0.2,0.3-0.3l0,0l0.3-4.5l-0.3-8.5c0-0.2-0.2-0.3-0.3-0.3c-0.2,0-0.3,0.2-0.3,0.3L29.8,44l0.2,4.5
			C30.1,48.7,30.2,48.8,30.5,48.8C30.4,48.8,30.4,48.8,30.5,48.8L30.5,48.8z M32.2,34.4c-0.2,0-0.4,0.2-0.4,0.4L31.4,44l0.3,4.4
			c0,0.2,0.2,0.4,0.4,0.4c0.2,0,0.4-0.2,0.4-0.4l0,0l0.3-4.4l-0.3-9.2C32.5,34.6,32.4,34.4,32.2,34.4C32.1,34.4,32.1,34.4,32.2,34.4
			L32.2,34.4z M33.9,48.8c0.2,0,0.4-0.2,0.4-0.4l0,0l0.3-4.4l-0.3-9.6c0-0.2-0.2-0.4-0.4-0.4c-0.2,0-0.4,0.2-0.4,0.4L33.3,44
			l0.2,4.5C33.5,48.7,33.6,48.8,33.9,48.8L33.9,48.8z M35.7,48.8c0.2,0,0.4-0.2,0.5-0.5l0,0l0.3-4.4l-0.3-9.3c0-0.3-0.2-0.5-0.5-0.5
			s-0.5,0.2-0.5,0.5L35,44l0.2,4.4C35.2,48.6,35.4,48.8,35.7,48.8L35.7,48.8z M38.2,44l-0.3-9c0-0.3-0.2-0.5-0.5-0.5
			c-0.3,0-0.5,0.2-0.5,0.5l-0.2,9l0.2,4.3c0,0.3,0.2,0.5,0.5,0.5c0.3,0,0.5-0.2,0.5-0.5l0,0L38.2,44z M39.2,48.8
			c0.3,0,0.5-0.2,0.5-0.5l0,0L40,44l-0.2-10.7c0-0.3-0.2-0.5-0.5-0.5s-0.5,0.2-0.5,0.5L38.5,44l0.1,4.4
			C38.6,48.6,38.8,48.8,39.2,48.8L39.2,48.8z M41,31.8c-0.3,0-0.6,0.3-0.6,0.6L40.2,44l0.2,4.2c0,0.3,0.3,0.6,0.6,0.6
			c0.3,0,0.6-0.3,0.6-0.6l0,0l0.3-4.2l-0.3-11.7C41.5,32,41.2,31.8,41,31.8L41,31.8z M42.6,48.8h14.2c1.1,0,2.1-0.3,2.9-0.9
			c1.4-0.9,2.2-2.5,2.2-4.3c0-2.9-2.3-5.2-5.2-5.2c-0.7,0-1.4,0.1-2,0.4c-0.4-5-4.9-8.7-9.9-8.3c-0.9,0.1-1.7,0.3-2.5,0.6
			c-0.4,0.2-0.5,0.3-0.5,0.6v16.5C42,48.6,42.2,48.8,42.6,48.8L42.6,48.8z"/>
	</g>
</g>
</svg>
